<svg width="50" height="50" viewBox="0 0 50 50" fill="none" xmlns="http://www.w3.org/2000/svg">
<path d="M24.9703 41.9999C15.5703 41.9834 7.9836 34.3702 8.00002 24.9702C8.01645 15.5702 15.6297 7.98349 25.0297 7.99992C34.4297 8.01634 42.0164 15.6296 42 25.0296C41.9835 34.4296 34.3703 42.0163 24.9703 41.9999ZM25.0262 9.99991C16.7262 9.98541 10.0145 16.6737 10 24.9737C9.98552 33.2737 16.6738 39.9854 24.9738 39.9999C33.2738 40.0144 39.9855 33.3261 40 25.0261C40.0145 16.7261 33.3262 10.0144 25.0262 9.99991Z" fill="#391952"/>
<path d="M24.683 34.6995L23.2854 33.2971L31.5999 25.0116L23.3144 16.6971L24.7169 15.2996L34.3999 25.0165L24.683 34.6995Z" fill="#391952"/>
<path d="M16.0017 23.9841L33.0017 24.0138L32.9982 26.0138L15.9982 25.9841L16.0017 23.9841Z" fill="#391952"/>
</svg>
