<svg width="50" height="50" viewBox="0 0 50 50" fill="none" xmlns="http://www.w3.org/2000/svg">
<path d="M35.7649 38.1574C28.4896 44.1098 17.795 43.0402 11.8426 35.7649C5.89024 28.4896 6.95983 17.795 14.2351 11.8426C21.5104 5.89026 32.205 6.95984 38.1574 14.2351C44.1097 21.5104 43.0402 32.205 35.7649 38.1574ZM15.5015 13.3905C9.07764 18.6463 8.13472 28.0745 13.3905 34.4984C18.6463 40.9223 28.0745 41.8653 34.4984 36.6095C40.9223 31.3537 41.8653 21.9255 36.6095 15.5016C31.3536 9.07766 21.9254 8.13474 15.5015 13.3905Z" fill="white"/>
<path d="M30.9102 32.6974L28.9401 32.5004L30.1082 20.8206L18.4285 19.6526L18.6255 17.6825L32.2753 19.0476L30.9102 32.6974Z" fill="white"/>
<path d="M17.4011 29.9251L30.5585 19.1602L31.825 20.7081L18.6676 31.473L17.4011 29.9251Z" fill="white"/>
</svg>
