<svg width="5" height="5" viewBox="0 0 45 45" fill="none" xmlns="http://www.w3.org/2000/svg">
<path d="M34.938 6.75225C35.8331 6.75225 36.6915 7.10783 37.3245 7.74076C37.9574 8.3737 38.313 9.23214 38.313 10.1272V13.2682C38.3128 14.3046 38.0263 15.3207 37.4851 16.2045C36.944 17.0883 36.1692 17.8054 35.2462 18.2768L25.8232 23.0917C27.4809 23.8435 28.8311 25.1403 29.6491 26.7663C30.4671 28.3923 30.7035 30.2494 30.319 32.0285C29.9344 33.8076 28.9522 35.4013 27.5357 36.5443C26.1192 37.6873 24.3539 38.3107 22.5337 38.3107C20.7136 38.3107 18.9483 37.6873 17.5318 36.5443C16.1153 35.4013 15.1331 33.8076 14.7485 32.0285C14.364 30.2494 14.6004 28.3923 15.4184 26.7663C16.2363 25.1403 17.5866 23.8435 19.2442 23.0917L9.81899 18.2768C8.95935 17.8377 8.22714 17.1849 7.69281 16.381C7.15847 15.5772 6.83999 14.6493 6.76799 13.6868L6.75224 13.2682V10.125C6.75224 9.22989 7.10782 8.37145 7.74076 7.73851C8.37369 7.10558 9.23214 6.75 10.1272 6.75L34.938 6.75225ZM22.5337 24.633C21.7832 24.633 21.0401 24.7808 20.3467 25.068C19.6533 25.3552 19.0233 25.7762 18.4926 26.3069C17.9619 26.8376 17.541 27.4676 17.2538 28.161C16.9666 28.8543 16.8187 29.5975 16.8187 30.348C16.8187 31.0985 16.9666 31.8417 17.2538 32.535C17.541 33.2284 17.9619 33.8584 18.4926 34.3891C19.0233 34.9198 19.6533 35.3408 20.3467 35.628C21.0401 35.9152 21.7832 36.063 22.5337 36.063C24.0495 36.063 25.5031 35.4609 26.5749 34.3891C27.6466 33.3173 28.2487 31.8637 28.2487 30.348C28.2487 28.8323 27.6466 27.3787 26.5749 26.3069C25.5031 25.2351 24.0495 24.633 22.5337 24.633ZM28.2442 9.00225H16.8165V19.3252L22.0207 21.9847C22.1792 22.0657 22.3547 22.1079 22.5326 22.1079C22.7106 22.1079 22.886 22.0657 23.0445 21.9847L28.2442 19.3252V9.00225ZM14.5665 9.00225H10.1272C9.82887 9.00225 9.54273 9.12078 9.33175 9.33175C9.12077 9.54273 9.00224 9.82888 9.00224 10.1272V13.2682L9.01799 13.5833C9.07131 14.1488 9.2665 14.6917 9.58548 15.1617C9.90445 15.6317 10.3369 16.0136 10.8427 16.272L14.5665 18.1755V9.00225ZM34.938 9.00225H30.4942V18.1755L34.2225 16.272C34.7761 15.9894 35.241 15.5593 35.5657 15.0293C35.8905 14.4993 36.0626 13.8899 36.063 13.2682V10.125C36.063 9.82663 35.9445 9.54048 35.7335 9.3295C35.5225 9.11853 35.2364 9.00225 34.938 9.00225Z" fill="#391952"/>
</svg>
