<svg width="39" height="39" viewBox="0 0 39 39" fill="none" xmlns="http://www.w3.org/2000/svg">
<path d="M7.3125 13.4062C7.3125 12.4366 7.69771 11.5066 8.38339 10.8209C9.06907 10.1352 9.99905 9.75 10.9688 9.75H28.0312C29.0009 9.75 29.9309 10.1352 30.6166 10.8209C31.3023 11.5066 31.6875 12.4366 31.6875 13.4062V23.1562C31.6875 24.1259 31.3023 25.0559 30.6166 25.7416C29.9309 26.4273 29.0009 26.8125 28.0312 26.8125H10.9688C9.99905 26.8125 9.06907 26.4273 8.38339 25.7416C7.69771 25.0559 7.3125 24.1259 7.3125 23.1562V13.4062ZM6.09375 29.25C5.77052 29.25 5.46052 29.3784 5.23196 29.607C5.0034 29.8355 4.875 30.1455 4.875 30.4688C4.875 30.792 5.0034 31.102 5.23196 31.3305C5.46052 31.5591 5.77052 31.6875 6.09375 31.6875H32.9062C33.2295 31.6875 33.5395 31.5591 33.768 31.3305C33.9966 31.102 34.125 30.792 34.125 30.4688C34.125 30.1455 33.9966 29.8355 33.768 29.607C33.5395 29.3784 33.2295 29.25 32.9062 29.25H6.09375Z" fill="white"/>
</svg>
