<svg width="68" height="64" viewBox="0 0 68 64" fill="none" xmlns="http://www.w3.org/2000/svg">
<rect width="67.3684" height="64" rx="22.4561" fill="#EED8FF"/>
<path d="M19.2675 16.6976L17.5625 17.3742" stroke="#CF9B74" stroke-width="0.902121"/>
<path d="M17.5625 17.3741C17.1355 17.0463 16.4965 17.0613 15.6455 17.4192C11.6131 19.1272 8.61801 21.826 6.66041 25.5157C6.29655 26.2043 5.86354 26.8494 5.36136 27.4508C2.65499 30.7029 2.0641 34.5009 4.54945 38.0281" stroke="#DAAA78" stroke-width="0.902121"/>
<path d="M4.54944 38.0281L4.90577 39.0024" stroke="#CF9B74" stroke-width="0.902121"/>
<path d="M4.90576 39.0025L5.99282 41.6096" stroke="#DAAA78" stroke-width="0.902121"/>
<path d="M5.99286 41.6096C7.30093 44.1656 9.1999 46.1517 11.6898 47.5681C18.7669 51.587 27.6618 50.0895 34.0759 45.5563C34.2022 45.4691 34.333 45.4631 34.4683 45.5383C36.5312 46.7111 38.3369 47.4252 39.8856 47.6808C51.1485 49.5437 67.6934 43.7566 63.264 28.7092" stroke="#C69778" stroke-width="0.902121"/>
<path d="M63.264 28.7092C62.7227 25.1519 60.8659 22.2891 57.6934 20.121C57.507 19.9917 57.3431 19.9496 57.2018 19.9947C57.0544 20.0398 56.892 20.1346 56.7146 20.2789" stroke="#DAAA78" stroke-width="0.902121"/>
<path d="M56.7146 20.2789L55.3389 19.3091" stroke="#CF9B74" stroke-width="0.902121"/>
<path d="M55.3389 19.3092L55.0457 18.5784C54.9885 18.4341 54.8878 18.3319 54.7435 18.2717C49.3037 15.9683 43.9466 16.287 38.6722 19.228" stroke="#DAAA78" stroke-width="0.902121"/>
<path d="M38.6722 19.228L38.0407 19.7151C37.9023 19.8234 37.77 19.8173 37.6437 19.6971L36.9536 19.043" stroke="#CF9B74" stroke-width="0.902121"/>
<path d="M36.9537 19.043C36.7943 18.7032 36.6515 18.2897 36.5252 17.8026C35.2216 12.8093 24.2112 14.582 20.9726 15.5879C20.2599 15.8089 19.854 16.2599 19.2676 16.6975" stroke="#DAAA78" stroke-width="0.902121"/>
<path d="M36.9537 19.043C36.2981 21.7764 34.5826 23.4228 31.8071 23.9821C31.6567 24.0122 31.5334 24.0859 31.4372 24.2031L29.642 26.4449C29.5488 26.5622 29.4961 26.6945 29.4841 26.8418C29.3428 28.3995 28.6602 29.673 27.4363 30.6623C27.313 30.7615 27.1717 30.8142 27.0123 30.8202C26.3989 30.8412 25.9839 30.8142 25.7674 30.739C24.2112 30.1932 25.3524 28.9528 25.3524 28.0371C25.3524 27.5891 25.2562 27.1636 25.0637 26.7606C24.9915 26.6103 24.8743 26.5246 24.7119 26.5035C23.4309 26.3186 22.4791 26.6975 21.7529 25.1278C21.703 25.0163 21.6888 24.8919 21.7123 24.7715C22.3168 21.8937 21.8431 19.2309 20.2915 16.7832C20.2163 16.6629 20.1096 16.6103 19.9712 16.6253L19.2676 16.6975" stroke="#AE550D" stroke-width="0.902121"/>
<path d="M38.6722 19.228C39.2586 19.2791 39.5803 19.5437 39.6374 20.0218" stroke="#AE550D" stroke-width="0.902121"/>
<path d="M39.6374 20.0219C39.1563 19.9888 38.7594 20.1782 38.4466 20.5902C38.4045 20.6454 38.382 20.7132 38.3828 20.7827C38.3837 20.8522 38.4077 20.9194 38.4511 20.9736L39.3668 22.1238" stroke="#9A420C" stroke-width="0.902121"/>
<path d="M39.3668 22.1237C34.778 23.5882 31.2928 26.302 28.9112 30.2654C28.8776 30.3234 28.861 30.3897 28.8634 30.4568C28.8658 30.5238 28.8871 30.5888 28.9248 30.6443L30.296 32.5883C30.3456 32.658 30.368 32.743 30.3591 32.8274C30.284 33.6543 29.9833 34.7294 29.457 36.0525C28.4677 38.5303 28.5339 40.8397 29.6555 42.9808" stroke="#AE550D" stroke-width="0.902121"/>
<path d="M29.6554 42.9808L28.8796 42.4169C28.7323 42.3087 28.621 42.3387 28.5458 42.5071C28.3383 42.9793 28.388 43.4273 28.6947 43.8513C28.7909 43.9806 28.7714 44.0919 28.636 44.1851L27.4813 44.988" stroke="#9A420C" stroke-width="0.902121"/>
<path d="M27.4814 44.988L28.379 44.2122C28.4812 44.122 28.5128 44.0107 28.4737 43.8784C27.3912 40.4714 27.4814 37.0929 28.7443 33.7431C28.7871 33.6292 28.8014 33.5066 28.7858 33.3859C28.7702 33.2653 28.7253 33.1503 28.6549 33.051C28.5846 32.9517 28.491 32.8712 28.3824 32.8165C28.2737 32.7618 28.1533 32.7346 28.0317 32.7372C26.7086 32.7643 25.7283 32.2335 25.0908 31.145C25.0655 31.1025 25.0295 31.0673 24.9865 31.043C24.9434 31.0187 24.8949 31.0061 24.8458 31.0066C24.7968 31.0071 24.7489 31.0205 24.7072 31.0456C24.6654 31.0707 24.6312 31.1066 24.6081 31.1495C23.1196 33.8528 20.8102 34.8722 17.6798 34.2077C17.6195 34.1951 17.5569 34.2035 17.5026 34.2315C17.4483 34.2595 17.4057 34.3052 17.3821 34.361L16.5477 36.2825C16.5154 36.359 16.4605 36.4249 16.3898 36.472C13.3767 38.4657 11.8115 41.1089 11.5905 44.6813" stroke="#AE550D" stroke-width="0.902121"/>
<path d="M11.5905 44.6813C11.5905 44.525 11.1875 44.4017 10.3817 44.3115" stroke="#9A420C" stroke-width="0.902121"/>
<path d="M10.3816 44.3114C10.5801 43.0259 10.3771 41.7178 10.9049 40.6037C11.807 38.6957 14.139 37.3245 14.8607 36.1833C15.429 35.2902 15.7417 34.4151 15.7989 33.5581C15.8061 33.4476 15.7826 33.3372 15.731 33.2392C15.6794 33.1411 15.6016 33.0593 15.5063 33.0028C15.411 32.9463 15.3019 32.9173 15.1912 32.919C15.0804 32.9206 14.9722 32.953 14.8787 33.0123C13.5315 33.8754 12.0551 34.5023 10.4493 34.8933C9.66746 35.0827 8.32631 35.86 6.42584 37.2252C5.80789 37.6718 5.62295 38.2311 5.49665 38.9438C5.46658 39.1122 5.37035 39.1678 5.20797 39.1107L4.90576 39.0024" stroke="#AE550D" stroke-width="0.902121"/>
<path d="M4.54944 38.0282C6.17025 35.7699 8.20302 34.307 10.6478 33.6394C11.3063 33.459 12.2355 33.477 13.0249 33.283C13.2835 33.2169 13.2865 33.1402 13.0339 33.053C10.3185 32.0877 8.11131 30.4459 6.41231 28.1274C6.37323 28.0756 6.34988 28.0137 6.34502 27.949C6.34015 27.8843 6.35399 27.8196 6.38489 27.7625C6.41579 27.7055 6.46245 27.6585 6.5193 27.6273C6.57614 27.596 6.64078 27.5817 6.70551 27.5862C6.95509 27.5982 7.21069 27.729 7.47231 27.9786C8.96382 29.3979 10.6357 30.518 12.4881 31.339C14.3555 32.1734 16.692 32.5072 18.8165 32.85C22.01 33.3672 23.7721 32.1509 24.1029 29.2009C24.16 28.6747 24.0548 28.2718 23.7872 27.9921C23.0068 27.1937 21.8792 27.099 21.2071 25.9804C20.1742 24.2663 21.2703 22.1103 20.296 20.2745C19.7126 19.1769 18.8014 18.2101 17.5625 17.3741" stroke="#AE550D" stroke-width="0.902121"/>
<path d="M55.3388 19.3091C55.1404 19.7872 54.9208 20.112 54.6803 20.2834C54.557 20.3706 54.4563 20.4773 54.3781 20.6036C51.9063 24.6511 48.2557 25.8029 43.4263 24.0587" stroke="#AE550D" stroke-width="0.902121"/>
<path d="M43.4264 24.0588C42.5603 22.3658 41.2974 21.0201 39.6375 20.0218" stroke="#A55111" stroke-width="0.902121"/>
<path d="M42.5332 34.6497C42.2566 34.9895 42.1228 35.4856 42.1318 36.1382" stroke="#6C2A0B" stroke-width="0.902121"/>
<path d="M41.559 44.5415C42.2686 44.6167 42.5874 44.4573 42.5152 44.0634" stroke="#A55111" stroke-width="0.902121"/>
<path d="M44.13 44.5459C48.8962 45.1985 53.1948 44.1505 57.0258 41.402" stroke="#A55111" stroke-width="0.902121"/>
<path d="M58.7354 40.1752C60.3712 38.8852 61.6342 37.1396 62.5243 34.9384" stroke="#A55111" stroke-width="0.902121"/>
<path d="M5.99286 41.6096C7.37912 42.9387 8.84206 43.8394 10.3817 44.3115" stroke="#A55111" stroke-width="0.902121"/>
<path d="M11.5905 44.6813C12.1468 45.1203 12.9527 45.4887 14.0082 45.7864C17.7791 46.8554 20.8418 47.0223 24.4773 45.8901C25.4877 45.5744 26.489 45.2737 27.4814 44.988" stroke="#A55111" stroke-width="0.902121"/>
<path d="M29.6555 42.9808C30.287 43.3266 30.6629 43.3596 30.7832 43.08C34.3947 40.8277 37.4559 38.0311 39.9668 34.6903C43.1738 30.4187 43.6113 25.9126 39.3669 22.1237" stroke="#A55111" stroke-width="0.902121"/>
<path d="M56.7146 20.2789C56.2334 22.0381 55.6937 23.1597 55.0953 23.6438C54.4788 24.14 53.9045 24.7219 53.3722 25.3894C53.3291 25.4447 53.3079 25.5138 53.3129 25.5831C53.3179 25.6524 53.3488 25.7169 53.3993 25.7638C55.2802 27.5094 57.116 29.1423 58.0632 31.0818C58.0936 31.1437 58.1394 31.1966 58.1964 31.2353C58.2533 31.2741 58.3194 31.2974 58.388 31.3029C59.2119 31.372 60.0133 31.2743 60.7922 31.0097C60.9261 30.9631 61.0747 30.9663 61.2117 31.0187L62.3934 31.4562" stroke="#AE550D" stroke-width="0.902121"/>
<path d="M62.3934 31.4562C61.8612 31.5855 61.6898 32.1103 61.8792 33.0304C61.9123 33.1748 61.983 33.2981 62.0912 33.4003C62.5032 33.7852 62.6475 34.2979 62.5242 34.9384" stroke="#9A420C" stroke-width="0.902121"/>
<path d="M62.5243 34.9384C62.1364 33.3326 60.9741 32.5462 59.0376 32.5793C55.1494 32.6515 56.0696 37.4417 57.2378 39.6745C57.5656 40.3 58.0648 40.4669 58.7354 40.1752" stroke="#AE550D" stroke-width="0.902121"/>
<path d="M58.7353 40.1752C58.4286 40.6774 57.9881 40.8548 57.4137 40.7074C57.2754 40.6713 57.1641 40.7104 57.0799 40.8247C56.9597 40.9841 56.9416 41.1765 57.0258 41.4021" stroke="#9A420C" stroke-width="0.902121"/>
<path d="M57.0258 41.4021C56.5342 40.3782 55.8305 39.3633 55.5824 38.3574C54.8968 35.5969 55.6772 33.7295 56.6785 31.2307C56.7356 31.0863 56.7341 30.9405 56.674 30.7931C56.2049 29.6474 54.0263 28.3439 53.1061 27.7755C51.7078 26.9185 50.4674 27.5139 49.9893 28.9799C49.9423 29.1204 49.9423 29.2738 49.9893 29.4174C51.0267 32.6515 51.8567 37.2207 48.6496 39.0972C46.3312 40.4594 44.8833 41.5735 44.13 44.546" stroke="#AE550D" stroke-width="0.902121"/>
<path d="M44.13 44.546C44.118 44.2453 44.0563 44.1205 43.9451 44.1716C43.7586 44.2588 43.5677 44.3671 43.3722 44.4964C43.3563 44.5073 43.3377 44.5136 43.3184 44.5145C43.2991 44.5154 43.28 44.5109 43.2631 44.5016C43.2462 44.4922 43.2323 44.4783 43.2229 44.4614C43.2135 44.4446 43.209 44.4254 43.2098 44.4062C43.2098 44.355 43.2098 44.3069 43.2098 44.2618C43.2095 44.2368 43.2031 44.2122 43.1911 44.1902C43.1791 44.1682 43.1618 44.1495 43.1409 44.1357C43.12 44.1219 43.096 44.1134 43.0711 44.111C43.0461 44.1086 43.021 44.1124 42.9978 44.122C42.7302 44.2332 42.5693 44.2137 42.5152 44.0634" stroke="#9A420C" stroke-width="0.902121"/>
<path d="M42.5152 44.0633C42.1454 43.7205 42.1995 43.2694 42.5107 42.886C43.3256 41.8937 44.7585 40.3435 46.8093 38.2356C48.9233 36.0645 49.5864 33.3461 48.7985 30.0804C48.7714 29.9661 48.7053 29.933 48.6 29.9812L46.1959 31.0141C46.1575 31.0305 46.1241 31.0562 46.0988 31.0886C46.0735 31.121 46.0572 31.159 46.0515 31.199C45.8711 32.2846 45.9147 33.3581 46.1823 34.4196C46.2214 34.576 46.2094 34.7293 46.1463 34.8797C44.5585 38.6505 42.1123 41.7313 38.8075 44.1219C38.7674 44.1512 38.7377 44.1924 38.7225 44.2396C38.7073 44.2869 38.7075 44.3377 38.723 44.3848C38.7386 44.4319 38.7687 44.4729 38.809 44.5019C38.8493 44.5308 38.8977 44.5462 38.9473 44.5459L41.559 44.5414" stroke="#AE550D" stroke-width="0.902121"/>
<path d="M41.559 44.5414C39.8901 44.7549 38.2542 44.5655 36.6514 43.9731C36.2425 43.8197 36.2259 43.6303 36.6018 43.4048C38.3158 42.3764 39.5412 40.8322 40.278 38.7724C40.6117 37.8492 41.2297 36.9711 42.1318 36.1382" stroke="#9A420C" stroke-width="0.902121"/>
<path d="M42.1318 36.1382C44.2834 37.8207 44.7931 35.9533 45.7899 34.6091C45.8824 34.4849 45.945 34.3409 45.9728 34.1886C46.0005 34.0362 45.9927 33.8794 45.9499 33.7306C45.9071 33.5817 45.8305 33.4447 45.7261 33.3303C45.6217 33.2159 45.4922 33.1272 45.3479 33.071C44.4788 32.7342 43.5406 33.2604 42.5333 34.6497" stroke="#752E07" stroke-width="0.902121"/>
<path d="M42.5333 34.6497L43.1648 31.1494C43.249 30.6924 43.503 30.5571 43.927 30.7435C44.4022 30.954 44.9269 31.0262 45.5013 30.96C45.6333 30.9448 45.7584 30.8933 45.8629 30.8111C45.9673 30.729 46.047 30.6194 46.0932 30.4944C46.1394 30.3694 46.1502 30.2339 46.1246 30.1027C46.0989 29.9716 46.0377 29.8499 45.9478 29.7512C45.4035 29.1528 44.6938 28.9618 43.8188 29.1783C43.7561 29.1935 43.6906 29.1922 43.6285 29.1746C43.5665 29.157 43.51 29.1237 43.4647 29.0779C43.4193 29.032 43.3865 28.9752 43.3695 28.913C43.3526 28.8508 43.3519 28.7853 43.3677 28.7227C43.6564 27.571 43.6023 26.4524 43.2053 25.3668C43.1512 25.2165 43.2023 25.1278 43.3587 25.1007L44.0263 24.9835C44.315 24.9323 44.3465 24.8135 44.121 24.6271L43.4264 24.0588" stroke="#9A420C" stroke-width="0.902121"/>
<path d="M63.264 28.7092L62.3934 31.4562" stroke="#A55111" stroke-width="0.902121"/>
<path d="M29.9171 19.3407C29.8621 19.4643 29.8426 19.6007 29.8605 19.7347C29.8785 19.8688 29.9333 19.9952 30.0189 20.0999C30.1045 20.2046 30.2174 20.2836 30.3452 20.3279C30.4729 20.3723 30.6105 20.3803 30.7425 20.3511L31.8296 20.112C31.9979 20.076 32.148 19.9818 32.2536 19.8459L32.9618 18.9302C33.041 18.8277 33.0915 18.7059 33.1081 18.5774C33.1248 18.4488 33.1069 18.3182 33.0564 18.1989C33.0059 18.0795 32.9246 17.9757 32.8208 17.8982C32.7169 17.8206 32.5944 17.7721 32.4656 17.7575L31.2387 17.6222C31.0846 17.6049 30.929 17.6371 30.7943 17.7141C30.6597 17.7912 30.5531 17.909 30.4899 18.0507L29.9171 19.3407Z" stroke="#8A410D" stroke-width="0.902121"/>
<path d="M27.4137 24.4151C27.8257 24.2347 28.2151 23.9927 28.5819 23.6889C28.6812 23.6078 28.7173 23.5025 28.6902 23.3732L28.1219 20.6668C28.1055 20.5862 28.0579 20.5153 27.9895 20.4696C27.921 20.424 27.8372 20.4073 27.7565 20.4233L25.7267 20.8247C25.5012 20.8698 25.3914 21.0081 25.3975 21.2397L25.5057 24.8031C25.5117 24.9865 25.6034 25.0962 25.7808 25.1323C26.2951 25.2406 26.71 25.0993 27.0258 24.7083C27.131 24.579 27.2603 24.4813 27.4137 24.4151Z" stroke="#8A410D" stroke-width="0.902121"/>
<path d="M46.5747 22.0787C45.9072 23.4724 47.7385 23.5672 48.5369 23.3912C49.9171 23.08 50.1426 21.5419 48.9879 20.7119C48.8767 20.6308 48.7564 20.6157 48.6271 20.6668C47.4964 21.1149 46.8123 21.5855 46.5747 22.0787Z" stroke="#93430E" stroke-width="0.902121"/>
<path d="M18.0271 22.453C16.056 21.2622 14.802 23.3055 14.8877 24.9699C14.8946 25.0951 14.9316 25.2168 14.9958 25.3245C15.0599 25.4322 15.1492 25.5227 15.2558 25.588C15.3624 25.6533 15.4832 25.6915 15.6077 25.6994C15.7322 25.7072 15.8567 25.6844 15.9703 25.633C16.9115 25.212 17.6858 24.573 18.2932 23.716C18.3626 23.6168 18.4109 23.5045 18.4351 23.386C18.4593 23.2674 18.4589 23.1452 18.434 23.0268C18.4091 22.9084 18.3601 22.7964 18.2901 22.6977C18.2201 22.599 18.1306 22.5157 18.0271 22.453Z" stroke="#8A410D" stroke-width="0.902121"/>
<path d="M11.7754 24.3249L8.70372 25.3533C8.62365 25.3798 8.5496 25.4218 8.48583 25.477C8.42205 25.5322 8.3698 25.5995 8.33208 25.6749C8.29436 25.7503 8.27192 25.8325 8.26603 25.9166C8.26014 26.0008 8.27092 26.0852 8.29776 26.1652L8.43759 26.5712C8.51203 26.7943 8.63281 26.9996 8.79303 27.1752C8.95324 27.3509 9.14976 27.4935 9.37135 27.5948C9.59294 27.6962 9.83526 27.7544 10.0845 27.766C10.3337 27.7777 10.5849 27.7426 10.8237 27.6627L11.4732 27.4462C11.7123 27.3663 11.9343 27.2431 12.1265 27.0838C12.3187 26.9244 12.4774 26.732 12.5935 26.5174C12.7095 26.3029 12.7807 26.0706 12.8029 25.8337C12.825 25.5967 12.7978 25.3599 12.7227 25.1368L12.5873 24.7308C12.5608 24.6508 12.5188 24.5767 12.4636 24.5129C12.4084 24.4491 12.3412 24.3969 12.2657 24.3592C12.1903 24.3215 12.1081 24.299 12.024 24.2931C11.9399 24.2872 11.8554 24.298 11.7754 24.3249Z" stroke="#93430E" stroke-width="0.902121"/>
<path d="M19.3758 27.7349C19.2665 27.5863 19.1157 27.4732 18.9424 27.4099C18.7691 27.3465 18.581 27.3356 18.4015 27.3786L17.8242 27.5184C17.5877 27.5755 17.3826 27.7221 17.2522 27.9274C17.1217 28.1328 17.0762 28.3807 17.125 28.619L17.4182 30.0534C17.4471 30.1935 17.5076 30.3252 17.5951 30.4384C17.6827 30.5516 17.7949 30.6432 17.9233 30.7064C18.0517 30.7695 18.1929 30.8024 18.336 30.8026C18.479 30.8028 18.6203 30.7702 18.7489 30.7074L19.8134 30.1932C19.9373 30.1329 20.0465 30.046 20.1331 29.9387C20.2196 29.8313 20.2815 29.7063 20.3142 29.5723C20.3469 29.4384 20.3497 29.2989 20.3224 29.1637C20.2951 29.0286 20.2383 28.9011 20.1562 28.7904L19.3758 27.7349Z" stroke="#8A410D" stroke-width="0.902121"/>
<path d="M7.35502 31.2171C7.27599 31.0946 7.16698 30.9942 7.03832 30.9255C6.90966 30.8569 6.76561 30.8222 6.61979 30.8247L6.0289 30.8382C5.90095 30.8408 5.7752 30.872 5.66088 30.9296C5.54656 30.9871 5.44658 31.0695 5.36827 31.1707C5.28997 31.272 5.23534 31.3895 5.20838 31.5146C5.18142 31.6397 5.18282 31.7692 5.21249 31.8937L5.5598 33.3461C5.59142 33.4771 5.65347 33.5988 5.74091 33.7013C5.82835 33.8037 5.93872 33.8842 6.06306 33.936C6.18741 33.9879 6.32222 34.0097 6.45657 33.9997C6.59092 33.9896 6.72101 33.9481 6.8363 33.8784L7.69332 33.3642C7.79155 33.3047 7.87683 33.2262 7.94411 33.1331C8.01138 33.0401 8.05928 32.9345 8.08494 32.8225C8.11061 32.7106 8.11352 32.5947 8.09351 32.4816C8.0735 32.3686 8.03098 32.2607 7.96847 32.1644L7.35502 31.2171Z" stroke="#8A410D" stroke-width="0.902121"/>
<path d="M44.324 25.7503C44.8653 26.8328 45.0547 28.3709 45.9929 29.1603C46.0548 29.2124 46.1275 29.25 46.2055 29.2703C46.2836 29.2906 46.3651 29.2931 46.444 29.2776C48.2302 28.9197 49.5623 27.9424 50.4404 26.3457C50.693 25.8856 50.5622 25.7067 50.0479 25.8089C48.0813 26.2058 46.1718 26.0435 44.3195 25.3218C44.2854 25.3093 44.2481 25.3087 44.2136 25.3199C44.1791 25.3312 44.1494 25.3536 44.1291 25.3837C44.1089 25.4138 44.0993 25.4499 44.1019 25.486C44.1045 25.5222 44.1192 25.5565 44.1436 25.5834C44.1947 25.6375 44.2428 25.6796 44.2879 25.7097C44.3059 25.7217 44.318 25.7352 44.324 25.7503Z" stroke="#AE550D" stroke-width="0.902121"/>
<path d="M60.0299 28.1319C60.1235 28.1176 60.2134 28.0849 60.2942 28.0357C60.375 27.9864 60.4452 27.9217 60.5007 27.8453C60.5561 27.7689 60.5957 27.6822 60.6171 27.5905C60.6385 27.4988 60.6413 27.4037 60.6253 27.311L60.1381 24.4061C60.1174 24.286 60.0708 24.1718 60.0015 24.0715C59.9322 23.9713 59.8419 23.8875 59.737 23.826C59.632 23.7645 59.515 23.7268 59.3942 23.7156C59.2734 23.7044 59.1516 23.7199 59.0375 23.7611C56.1237 24.8211 57.5039 28.5063 60.0299 28.1319Z" stroke="#93430E" stroke-width="0.902121"/>
<path d="M32.1544 30.8609L33.5211 31.5329C33.6682 31.6045 33.8378 31.6148 33.9926 31.5615C34.1473 31.5083 34.2746 31.3958 34.3465 31.2488L35.5869 28.7228C35.7188 28.4531 35.733 28.1395 35.6264 27.8511C35.5198 27.5626 35.3012 27.3229 35.0186 27.1847L34.6713 27.0133C34.5315 26.9444 34.3801 26.9025 34.2258 26.8899C34.0714 26.8773 33.9172 26.8943 33.7718 26.94C33.6265 26.9856 33.4928 27.059 33.3786 27.156C33.2644 27.2529 33.1718 27.3715 33.1061 27.505L31.8702 30.0354C31.7986 30.1826 31.7883 30.3522 31.8416 30.5069C31.8949 30.6617 32.0073 30.7889 32.1544 30.8609Z" stroke="#8A410D" stroke-width="0.902121"/>
<path d="M31.0718 36.8419C31.0578 36.9354 31.0661 37.0309 31.0959 37.1205C31.1258 37.2102 31.1764 37.2916 31.2437 37.358C31.311 37.4244 31.393 37.4739 31.483 37.5026C31.5731 37.5313 31.6687 37.5383 31.762 37.523C32.8204 37.3486 33.6564 36.7998 34.2699 35.8766C34.3202 35.8008 34.3519 35.7142 34.3623 35.6238C34.3728 35.5334 34.3617 35.4418 34.3301 35.3565C34.2984 35.2712 34.247 35.1946 34.1801 35.1329C34.1132 35.0712 34.0327 35.0262 33.9451 35.0016C32.3002 34.5295 31.3425 35.1429 31.0718 36.8419Z" stroke="#8A410D" stroke-width="0.902121"/>
<path d="M51.6853 31.3434C51.5133 31.479 51.3981 31.6739 51.3622 31.89C51.3263 32.106 51.3724 32.3277 51.4913 32.5116L52.213 33.6258C52.2878 33.742 52.3889 33.8389 52.5082 33.9087C52.6275 33.9785 52.7615 34.0193 52.8994 34.0276C53.0374 34.036 53.1754 34.0117 53.3022 33.9567C53.429 33.9018 53.5411 33.8178 53.6293 33.7115L55.0637 31.9929C55.1454 31.8949 55.2049 31.7802 55.2378 31.6569C55.2708 31.5336 55.2766 31.4046 55.2547 31.2789C55.2328 31.1531 55.1838 31.0336 55.1111 30.9287C55.0384 30.8238 54.9437 30.736 54.8337 30.6713L54.0443 30.2022C53.8914 30.112 53.7148 30.0702 53.5377 30.0823C53.3605 30.0944 53.1912 30.1598 53.052 30.2699L51.6853 31.3434Z" stroke="#8A410D" stroke-width="0.902121"/>
<path d="M51.0267 40.1165C53.2234 41.0908 54.536 37.8612 53.2189 37.4417C52.3619 37.1711 51.2523 38.3439 50.7471 38.9708C50.6759 39.0598 50.626 39.1639 50.6014 39.2751C50.5768 39.3864 50.578 39.5018 50.605 39.6125C50.632 39.7232 50.6841 39.8262 50.7572 39.9136C50.8303 40.001 50.9226 40.0704 51.0267 40.1165Z" stroke="#8A410D" stroke-width="0.902121"/>
<path d="M24.4863 35.182L23.4263 38.2582C23.4014 38.3305 23.391 38.407 23.3957 38.4833C23.4003 38.5596 23.42 38.6342 23.4535 38.7029C23.487 38.7716 23.5337 38.833 23.591 38.8836C23.6482 38.9343 23.7149 38.9731 23.7872 38.998L24.0307 39.0837C24.474 39.2359 24.9652 39.1893 25.3966 38.9542C25.8279 38.7191 26.1641 38.3146 26.3311 37.8297L26.5116 37.3065C26.6783 36.8214 26.6622 36.2957 26.4669 35.8448C26.2715 35.394 25.9128 35.055 25.4696 34.9023L25.2261 34.8212C25.1538 34.7963 25.0773 34.7858 25.001 34.7905C24.9247 34.7952 24.8501 34.8148 24.7814 34.8483C24.7127 34.8818 24.6513 34.9286 24.6007 34.9858C24.55 35.0431 24.5112 35.1097 24.4863 35.182Z" stroke="#8A410D" stroke-width="0.902121"/>
<path d="M16.7236 38.6777C16.5724 38.757 16.4476 38.8785 16.3643 39.0274C16.281 39.1764 16.2429 39.3464 16.2545 39.5167L16.3131 40.4594C16.3226 40.6007 16.3661 40.7377 16.4399 40.8586C16.5137 40.9795 16.6156 41.0808 16.737 41.1539C16.8583 41.2269 16.9955 41.2696 17.1369 41.2783C17.2783 41.287 17.4197 41.2614 17.549 41.2036L18.5774 40.7481C18.692 40.698 18.7945 40.624 18.8781 40.5312C18.9618 40.4383 19.0248 40.3287 19.0627 40.2096C19.1007 40.0905 19.1129 39.9647 19.0984 39.8406C19.084 39.7164 19.0432 39.5968 18.9789 39.4896L18.4918 38.6912C18.3768 38.5003 18.1937 38.36 17.9793 38.2989C17.765 38.2378 17.5354 38.2603 17.337 38.362L16.7236 38.6777Z" stroke="#8A410D" stroke-width="0.902121"/>
<path d="M24.8201 42.205C24.9226 42.104 24.9926 41.9748 25.0211 41.8337C25.0496 41.6927 25.0353 41.5464 24.9801 41.4135C24.9248 41.2807 24.8311 41.1674 24.711 41.0882C24.5908 41.009 24.4498 40.9675 24.3059 40.9691L23.088 40.9781C22.9563 40.9792 22.8274 41.0164 22.7153 41.0856C22.6032 41.1548 22.5121 41.2533 22.452 41.3705L21.7845 42.6606C21.7271 42.7706 21.699 42.8936 21.703 43.0177C21.707 43.1417 21.743 43.2627 21.8074 43.3688C21.8717 43.4749 21.9624 43.5626 22.0706 43.6234C22.1788 43.6843 22.3008 43.7162 22.425 43.7161H22.9843C23.1749 43.7169 23.3582 43.6423 23.494 43.5086L24.8201 42.205Z" stroke="#8A410D" stroke-width="0.902121"/>
<path d="M8.79844 39.6835C9.83588 39.4806 11.0853 38.3845 11.162 37.2704C11.1673 37.1722 11.1429 37.0748 11.0922 36.9911C11.0415 36.9074 10.9667 36.8412 10.8778 36.8013C9.09163 35.9939 7.60764 37.9199 8.31129 39.44C8.35364 39.5291 8.42461 39.6015 8.5129 39.6457C8.60118 39.6898 8.7017 39.7032 8.79844 39.6835Z" stroke="#8A410D" stroke-width="0.902121"/>
<path d="M36.9537 19.043C36.2981 21.7764 34.5826 23.4228 31.8071 23.9821C31.6567 24.0122 31.5334 24.0858 31.4372 24.2031L29.642 26.4449C29.5488 26.5622 29.4961 26.6945 29.4841 26.8418C29.3428 28.3995 28.6602 29.673 27.4363 30.6623C27.313 30.7615 27.1717 30.8142 27.0123 30.8202C26.3989 30.8412 25.9839 30.8142 25.7674 30.739C24.2112 30.1932 25.3524 28.9528 25.3524 28.0371C25.3524 27.5891 25.2562 27.1636 25.0637 26.7606C24.9915 26.6103 24.8743 26.5246 24.7119 26.5035C23.4309 26.3186 22.4791 26.6975 21.7529 25.1278C21.703 25.0163 21.6888 24.8919 21.7123 24.7715C22.3168 21.8937 21.8431 19.2309 20.2915 16.7832C20.2163 16.6629 20.1096 16.6103 19.9712 16.6253L19.2676 16.6975C19.854 16.2599 20.2599 15.8089 20.9726 15.5879C24.2112 14.582 35.2216 12.8093 36.5252 17.8026C36.6515 18.2897 36.7943 18.7032 36.9537 19.043ZM29.9171 19.3407C29.8622 19.4642 29.8426 19.6006 29.8606 19.7347C29.8785 19.8687 29.9334 19.9951 30.0189 20.0999C30.1045 20.2046 30.2174 20.2835 30.3452 20.3279C30.473 20.3722 30.6105 20.3803 30.7426 20.3511L31.8296 20.112C31.9979 20.076 32.148 19.9817 32.2536 19.8459L32.9618 18.9302C33.041 18.8277 33.0915 18.7059 33.1082 18.5773C33.1248 18.4488 33.1069 18.3182 33.0564 18.1988C33.0059 18.0795 32.9246 17.9757 32.8208 17.8981C32.717 17.8206 32.5944 17.772 32.4656 17.7575L31.2387 17.6221C31.0846 17.6049 30.929 17.6371 30.7944 17.7141C30.6598 17.7911 30.5531 17.909 30.49 18.0507L29.9171 19.3407ZM27.4137 24.4151C27.8257 24.2347 28.2151 23.9926 28.582 23.6889C28.6812 23.6077 28.7173 23.5025 28.6902 23.3732L28.1219 20.6668C28.1056 20.5861 28.058 20.5152 27.9895 20.4696C27.921 20.4239 27.8373 20.4073 27.7565 20.4232L25.7268 20.8247C25.5012 20.8698 25.3915 21.0081 25.3975 21.2396L25.5057 24.803C25.5118 24.9865 25.6035 25.0962 25.7809 25.1323C26.2951 25.2406 26.7101 25.0992 27.0258 24.7083C27.1311 24.579 27.2604 24.4813 27.4137 24.4151Z" fill="#B96311"/>
<path d="M36.9536 19.043L37.6438 19.697C37.7701 19.8173 37.9024 19.8233 38.0407 19.7151L38.6722 19.2279C39.2585 19.279 39.5803 19.5437 39.6374 20.0218C39.1563 19.9887 38.7594 20.1782 38.4466 20.5901C38.4045 20.6454 38.382 20.7131 38.3828 20.7826C38.3837 20.8521 38.4077 20.9193 38.4512 20.9735L39.3668 22.1237C34.778 23.5882 31.2928 26.3021 28.9112 30.2654C28.8776 30.3234 28.861 30.3898 28.8634 30.4568C28.8658 30.5238 28.8871 30.5888 28.9247 30.6443L30.296 32.5883C30.3455 32.6581 30.368 32.7431 30.3591 32.8274C30.2839 33.6543 29.9832 34.7294 29.457 36.0525C28.4677 38.5303 28.5338 40.8397 29.6555 42.9808L28.8796 42.417C28.7323 42.3087 28.621 42.3388 28.5459 42.5072C28.3384 42.9793 28.388 43.4273 28.6947 43.8513C28.7909 43.9806 28.7714 44.0919 28.6361 44.1851L27.4814 44.988L28.379 44.2122C28.4812 44.122 28.5128 44.0107 28.4737 43.8784C27.3911 40.4714 27.4814 37.0929 28.7443 33.7431C28.7871 33.6292 28.8013 33.5066 28.7858 33.3859C28.7702 33.2653 28.7252 33.1503 28.6549 33.051C28.5846 32.9517 28.491 32.8712 28.3823 32.8165C28.2737 32.7618 28.1533 32.7346 28.0317 32.7372C26.7085 32.7643 25.7282 32.2335 25.0907 31.145C25.0654 31.1025 25.0295 31.0673 24.9864 31.043C24.9434 31.0187 24.8949 31.0061 24.8458 31.0066C24.7967 31.0071 24.7489 31.0205 24.7071 31.0456C24.6654 31.0707 24.6312 31.1065 24.6081 31.1495C23.1196 33.8528 20.8102 34.8722 17.6798 34.2076C17.6195 34.1951 17.5569 34.2035 17.5026 34.2315C17.4483 34.2595 17.4057 34.3052 17.3821 34.361L16.5476 36.2825C16.5154 36.359 16.4605 36.4249 16.3898 36.472C13.3767 38.4657 11.8115 41.1089 11.5905 44.6813C11.5905 44.5249 11.1875 44.4016 10.3816 44.3114C10.5801 43.0259 10.3771 41.7178 10.9049 40.6037C11.807 38.6957 14.139 37.3245 14.8607 36.1833C15.429 35.2902 15.7418 34.4151 15.7989 33.5581C15.8062 33.4476 15.7827 33.3372 15.731 33.2392C15.6794 33.1411 15.6016 33.0593 15.5063 33.0028C15.411 32.9463 15.3019 32.9173 15.1912 32.919C15.0804 32.9206 14.9723 32.953 14.8787 33.0123C13.5316 33.8754 12.0551 34.5023 10.4493 34.8933C9.66747 35.0827 8.32632 35.86 6.42585 37.2252C5.8079 37.6718 5.62296 38.2311 5.49666 38.9438C5.46659 39.1122 5.37036 39.1678 5.20798 39.1107L4.90577 39.0024L4.54944 38.0281C6.17025 35.7698 8.20302 34.3069 10.6478 33.6393C11.3063 33.4589 12.2355 33.4769 13.0249 33.283C13.2835 33.2168 13.2865 33.1401 13.0339 33.0529C10.3185 32.0877 8.11131 30.4458 6.41231 28.1274C6.37323 28.0756 6.34988 28.0136 6.34502 27.9489C6.34015 27.8842 6.35399 27.8195 6.38489 27.7625C6.41579 27.7054 6.46245 27.6585 6.5193 27.6272C6.57614 27.5959 6.64078 27.5816 6.70551 27.5861C6.95509 27.5981 7.21069 27.7289 7.47231 27.9785C8.96382 29.3978 10.6357 30.518 12.4881 31.3389C14.3555 32.1734 16.692 32.5072 18.8165 32.85C22.01 33.3672 23.7721 32.1508 24.1029 29.2009C24.16 28.6746 24.0548 28.2717 23.7872 27.992C23.0068 27.1937 21.8792 27.0989 21.2071 25.9803C20.1742 24.2663 21.2703 22.1102 20.296 20.2744C19.7126 19.1768 18.8014 18.21 17.5625 17.3741L19.2675 16.6975L19.9712 16.6253C20.1095 16.6103 20.2163 16.6629 20.2915 16.7832C21.8431 19.2309 22.3167 21.8937 21.7123 24.7715C21.6888 24.8919 21.7029 25.0163 21.7529 25.1278C22.4791 26.6975 23.4308 26.3186 24.7118 26.5035C24.8742 26.5246 24.9915 26.6103 25.0637 26.7606C25.2561 27.1636 25.3524 27.5891 25.3524 28.0371C25.3524 28.9528 24.2112 30.1932 25.7673 30.739C25.9838 30.8142 26.3988 30.8412 27.0123 30.8202C27.1716 30.8142 27.313 30.7615 27.4362 30.6623C28.6601 29.673 29.3427 28.3995 29.4841 26.8418C29.4961 26.6945 29.5487 26.5622 29.6419 26.4449L31.4372 24.2031C31.5334 24.0859 31.6567 24.0122 31.807 23.9821C34.5826 23.4228 36.2981 21.7764 36.9536 19.043Z" fill="#A34608"/>
<path d="M55.3389 19.3092C55.1404 19.7873 54.9209 20.112 54.6803 20.2834C54.557 20.3706 54.4563 20.4774 54.3781 20.6037C51.9063 24.6512 48.2557 25.8029 43.4264 24.0588C42.5603 22.3658 41.2974 21.0202 39.6374 20.0218C39.5803 19.5437 39.2586 19.2791 38.6722 19.228C43.9466 16.287 49.3037 15.9683 54.7435 18.2717C54.8878 18.3319 54.9885 18.4341 55.0457 18.5784L55.3389 19.3092ZM46.5748 22.0787C45.9072 23.4724 47.7385 23.5672 48.5369 23.3913C49.9171 23.08 50.1426 21.5419 48.9879 20.712C48.8767 20.6308 48.7564 20.6157 48.6271 20.6668C47.4964 21.1149 46.8123 21.5855 46.5748 22.0787Z" fill="#B96311"/>
<path d="M17.5625 17.3741C18.8015 18.2101 19.7126 19.1768 20.296 20.2744C21.2703 22.1102 20.1742 24.2663 21.2071 25.9803C21.8792 27.0989 23.0068 27.1937 23.7872 27.992C24.0548 28.2717 24.1601 28.6747 24.1029 29.2009C23.7721 32.1508 22.01 33.3672 18.8165 32.85C16.692 32.5072 14.3555 32.1734 12.4881 31.3389C10.6358 30.518 8.96382 29.3979 7.47232 27.9785C7.2107 27.7289 6.9551 27.5981 6.70551 27.5861C6.64079 27.5817 6.57615 27.5959 6.5193 27.6272C6.46246 27.6585 6.4158 27.7054 6.3849 27.7625C6.354 27.8195 6.34016 27.8843 6.34502 27.949C6.34988 28.0136 6.37324 28.0756 6.41232 28.1274C8.11132 30.4458 10.3185 32.0877 13.0339 33.0529C13.2865 33.1402 13.2835 33.2168 13.0249 33.283C12.2355 33.4769 11.3063 33.4589 10.6478 33.6393C8.20303 34.3069 6.17026 35.7698 4.54945 38.0281C2.0641 34.5009 2.65499 30.7029 5.36136 27.4508C5.86354 26.8494 6.29655 26.2043 6.66041 25.5157C8.61801 21.826 11.6131 19.1272 15.6455 17.4192C16.4965 17.0613 17.1355 17.0463 17.5625 17.3741ZM18.0271 22.453C16.056 21.2622 14.8021 23.3055 14.8878 24.9699C14.8946 25.0952 14.9317 25.2169 14.9958 25.3246C15.0599 25.4323 15.1492 25.5227 15.2558 25.588C15.3625 25.6533 15.4833 25.6916 15.6078 25.6994C15.7323 25.7072 15.8567 25.6845 15.9703 25.633C16.9115 25.212 17.6858 24.573 18.2933 23.716C18.3626 23.6169 18.4109 23.5045 18.4351 23.386C18.4593 23.2675 18.459 23.1452 18.434 23.0268C18.4091 22.9084 18.3601 22.7964 18.2901 22.6977C18.2201 22.599 18.1306 22.5157 18.0271 22.453ZM11.7754 24.3249L8.70371 25.3533C8.62364 25.3798 8.5496 25.4219 8.48582 25.4771C8.42204 25.5323 8.36979 25.5995 8.33208 25.675C8.29436 25.7504 8.27191 25.8326 8.26602 25.9167C8.26013 26.0008 8.27092 26.0853 8.29776 26.1653L8.43759 26.5712C8.51202 26.7944 8.6328 26.9996 8.79302 27.1753C8.95324 27.3509 9.14975 27.4935 9.37134 27.5949C9.59293 27.6962 9.83525 27.7544 10.0844 27.7661C10.3337 27.7777 10.5849 27.7426 10.8237 27.6628L11.4732 27.4463C11.7123 27.3664 11.9343 27.2432 12.1265 27.0838C12.3187 26.9245 12.4774 26.732 12.5935 26.5175C12.7095 26.303 12.7807 26.0706 12.8028 25.8337C12.825 25.5968 12.7978 25.36 12.7227 25.1368L12.5873 24.7309C12.5608 24.6508 12.5188 24.5768 12.4636 24.513C12.4084 24.4492 12.3412 24.397 12.2657 24.3592C12.1903 24.3215 12.1081 24.2991 12.024 24.2932C11.9399 24.2873 11.8554 24.2981 11.7754 24.3249ZM19.3758 27.7349C19.2664 27.5863 19.1157 27.4732 18.9424 27.4099C18.7691 27.3465 18.581 27.3356 18.4015 27.3786L17.8242 27.5184C17.5877 27.5755 17.3826 27.7221 17.2522 27.9274C17.1217 28.1328 17.0761 28.3807 17.125 28.619L17.4182 30.0534C17.447 30.1935 17.5075 30.3252 17.5951 30.4384C17.6826 30.5516 17.7949 30.6432 17.9233 30.7064C18.0517 30.7695 18.1929 30.8024 18.3359 30.8026C18.479 30.8028 18.6203 30.7702 18.7488 30.7074L19.8133 30.1932C19.9373 30.1329 20.0465 30.046 20.133 29.9387C20.2196 29.8313 20.2814 29.7063 20.3142 29.5723C20.3469 29.4384 20.3497 29.2989 20.3224 29.1637C20.2951 29.0286 20.2383 28.9011 20.1561 28.7904L19.3758 27.7349ZM7.35504 31.2171C7.27601 31.0946 7.167 30.9942 7.03834 30.9255C6.90968 30.8569 6.76563 30.8222 6.61981 30.8247L6.02892 30.8382C5.90097 30.8408 5.77521 30.872 5.6609 30.9296C5.54658 30.9871 5.4466 31.0695 5.36829 31.1707C5.28999 31.272 5.23535 31.3894 5.2084 31.5146C5.18144 31.6397 5.18284 31.7692 5.21251 31.8937L5.55982 33.3461C5.59143 33.4771 5.65349 33.5988 5.74093 33.7012C5.82837 33.8037 5.93874 33.8842 6.06308 33.936C6.18743 33.9879 6.32224 34.0097 6.45659 33.9996C6.59094 33.9896 6.72103 33.9481 6.83632 33.8784L7.69334 33.3642C7.79157 33.3047 7.87685 33.2262 7.94413 33.1331C8.0114 33.0401 8.0593 32.9344 8.08496 32.8225C8.11063 32.7106 8.11354 32.5947 8.09353 32.4816C8.07352 32.3686 8.031 32.2607 7.96849 32.1644L7.35504 31.2171Z" fill="#B96311"/>
<path d="M29.9171 19.3407L30.4899 18.0507C30.5531 17.909 30.6597 17.7912 30.7943 17.7141C30.929 17.6371 31.0846 17.6049 31.2387 17.6222L32.4656 17.7575C32.5944 17.7721 32.7169 17.8206 32.8208 17.8982C32.9246 17.9757 33.0059 18.0795 33.0564 18.1989C33.1069 18.3182 33.1248 18.4488 33.1081 18.5774C33.0915 18.7059 33.041 18.8277 32.9618 18.9302L32.2536 19.8459C32.148 19.9818 31.9979 20.076 31.8296 20.112L30.7425 20.3511C30.6105 20.3803 30.4729 20.3723 30.3452 20.3279C30.2174 20.2836 30.1045 20.2046 30.0189 20.0999C29.9333 19.9952 29.8785 19.8688 29.8605 19.7347C29.8426 19.6007 29.8621 19.4643 29.9171 19.3407Z" fill="#5A1F08"/>
<path d="M55.3389 19.3091L56.7146 20.2789C56.2335 22.038 55.6937 23.1596 55.0953 23.6438C54.4789 24.1399 53.9045 24.7218 53.3722 25.3894C53.3291 25.4446 53.3079 25.5137 53.3129 25.583C53.318 25.6524 53.3488 25.7169 53.3993 25.7638C55.2802 27.5094 57.116 29.1422 58.0633 31.0818C58.0936 31.1436 58.1395 31.1965 58.1964 31.2353C58.2533 31.274 58.3194 31.2973 58.388 31.3028C59.212 31.3719 60.0134 31.2742 60.7922 31.0096C60.9262 30.963 61.0747 30.9662 61.2117 31.0186L62.3935 31.4561C61.8612 31.5854 61.6898 32.1102 61.8793 33.0303C61.9123 33.1747 61.983 33.298 62.0913 33.4002C62.5032 33.7851 62.6476 34.2978 62.5243 34.9383C62.1364 33.3326 60.9741 32.5462 59.0376 32.5793C55.1494 32.6515 56.0696 37.4417 57.2378 39.6745C57.5656 40.2999 58.0648 40.4668 58.7354 40.1751C58.4286 40.6773 57.9881 40.8547 57.4137 40.7074C57.2754 40.6713 57.1642 40.7104 57.08 40.8247C56.9597 40.984 56.9416 41.1765 57.0258 41.402C56.5342 40.3781 55.8305 39.3632 55.5824 38.3574C54.8968 35.5969 55.6772 33.7295 56.6785 31.2306C56.7357 31.0863 56.7342 30.9404 56.674 30.7931C56.2049 29.6474 54.0263 28.3438 53.1061 27.7755C51.7078 26.9185 50.4674 27.5139 49.9893 28.9798C49.9424 29.1204 49.9424 29.2738 49.9893 29.4174C51.0267 32.6515 51.8567 37.2207 48.6496 39.0971C46.3312 40.4593 44.8833 41.5734 44.13 44.5459C44.118 44.2452 44.0563 44.1204 43.9451 44.1715C43.7586 44.2587 43.5677 44.367 43.3722 44.4963C43.3563 44.5072 43.3377 44.5135 43.3184 44.5144C43.2991 44.5153 43.28 44.5109 43.2631 44.5015C43.2462 44.4921 43.2323 44.4782 43.2229 44.4614C43.2135 44.4445 43.209 44.4254 43.2099 44.4061C43.2099 44.355 43.2099 44.3069 43.2099 44.2618C43.2095 44.2367 43.2031 44.2121 43.1911 44.1901C43.1791 44.1681 43.1619 44.1494 43.1409 44.1356C43.12 44.1218 43.0961 44.1133 43.0711 44.111C43.0462 44.1086 43.021 44.1123 42.9979 44.1219C42.7302 44.2332 42.5694 44.2136 42.5152 44.0633C42.1454 43.7205 42.1995 43.2694 42.5107 42.886C43.3256 41.8937 44.7585 40.3435 46.8093 38.2356C48.9233 36.0645 49.5864 33.3461 48.7985 30.0804C48.7714 29.9661 48.7053 29.9331 48.6 29.9812L46.1959 31.0141C46.1575 31.0305 46.1241 31.0562 46.0988 31.0886C46.0735 31.121 46.0572 31.159 46.0515 31.199C45.8711 32.2846 45.9147 33.3581 46.1823 34.4196C46.2214 34.576 46.2094 34.7293 46.1463 34.8797C44.5585 38.6506 42.1123 41.7313 38.8075 44.1219C38.7674 44.1512 38.7377 44.1924 38.7225 44.2396C38.7073 44.2869 38.7075 44.3377 38.723 44.3848C38.7386 44.432 38.7687 44.4729 38.809 44.5019C38.8493 44.5308 38.8977 44.5462 38.9473 44.5459L41.559 44.5414C39.8901 44.7549 38.2542 44.5655 36.6514 43.9731C36.2425 43.8197 36.2259 43.6303 36.6018 43.4047C38.3158 42.3763 39.5412 40.8322 40.278 38.7723C40.6117 37.8492 41.2297 36.9711 42.1318 36.1382C44.2834 37.8206 44.7931 35.9532 45.7899 34.6091C45.8824 34.4848 45.945 34.3409 45.9727 34.1885C46.0005 34.0361 45.9927 33.8794 45.9499 33.7305C45.9071 33.5816 45.8305 33.4447 45.7261 33.3303C45.6217 33.2159 45.4922 33.1271 45.3479 33.0709C44.4788 32.7341 43.5406 33.2604 42.5333 34.6497L43.1648 31.1494C43.2489 30.6923 43.503 30.557 43.927 30.7435C44.4022 30.954 44.9269 31.0261 45.5012 30.96C45.6333 30.9448 45.7584 30.8933 45.8629 30.8111C45.9673 30.729 46.047 30.6194 46.0932 30.4944C46.1394 30.3694 46.1502 30.2338 46.1246 30.1027C46.0989 29.9716 46.0377 29.8499 45.9478 29.7511C45.4035 29.1527 44.6938 28.9618 43.8188 29.1783C43.7561 29.1935 43.6906 29.1922 43.6285 29.1746C43.5665 29.157 43.51 29.1237 43.4647 29.0778C43.4193 29.032 43.3865 28.9752 43.3695 28.913C43.3526 28.8508 43.3519 28.7852 43.3677 28.7227C43.6564 27.571 43.6023 26.4524 43.2053 25.3668C43.1512 25.2165 43.2023 25.1278 43.3587 25.1007L44.0263 24.9834C44.315 24.9323 44.3465 24.8135 44.121 24.6271L43.4264 24.0587C48.2557 25.8029 51.9063 24.6511 54.3781 20.6036C54.4563 20.4773 54.557 20.3706 54.6803 20.2834C54.9209 20.112 55.1404 19.7872 55.3389 19.3091ZM44.324 25.7502C44.8652 26.8328 45.0547 28.3709 45.9929 29.1602C46.0548 29.2124 46.1275 29.25 46.2055 29.2703C46.2836 29.2906 46.3651 29.293 46.444 29.2775C48.2302 28.9197 49.5623 27.9424 50.4404 26.3456C50.6929 25.8855 50.5621 25.7066 50.0479 25.8089C48.0813 26.2058 46.1718 26.0434 44.3195 25.3217C44.2854 25.3093 44.2481 25.3087 44.2136 25.3199C44.1791 25.3311 44.1494 25.3536 44.1291 25.3837C44.1089 25.4138 44.0993 25.4498 44.1019 25.486C44.1045 25.5222 44.1192 25.5565 44.1436 25.5833C44.1947 25.6375 44.2428 25.6796 44.2879 25.7096C44.3059 25.7217 44.318 25.7352 44.324 25.7502Z" fill="#A34608"/>
<path d="M63.264 28.7092L62.3934 31.4562L61.2117 31.0187C61.0747 30.9663 60.9261 30.9631 60.7922 31.0096C60.0133 31.2743 59.2119 31.372 58.388 31.3028C58.3194 31.2973 58.2533 31.274 58.1964 31.2353C58.1394 31.1965 58.0936 31.1437 58.0632 31.0818C57.116 29.1422 55.2802 27.5094 53.3993 25.7638C53.3488 25.7169 53.3179 25.6524 53.3129 25.5831C53.3079 25.5137 53.3291 25.4446 53.3722 25.3894C53.9045 24.7218 54.4788 24.14 55.0953 23.6438C55.6937 23.1597 56.2334 22.038 56.7146 20.2789C56.892 20.1346 57.0544 20.0398 57.2017 19.9947C57.3431 19.9496 57.5069 19.9917 57.6934 20.121C60.8658 22.2891 62.7227 25.1519 63.264 28.7092ZM60.0299 28.1319C60.1235 28.1175 60.2134 28.0848 60.2942 28.0356C60.375 27.9864 60.4452 27.9217 60.5007 27.8453C60.5561 27.7688 60.5957 27.6822 60.6171 27.5905C60.6385 27.4987 60.6413 27.4037 60.6253 27.3109L60.1381 24.4061C60.1174 24.2859 60.0708 24.1717 60.0015 24.0715C59.9322 23.9713 59.8419 23.8875 59.737 23.826C59.632 23.7645 59.515 23.7268 59.3942 23.7156C59.2734 23.7044 59.1516 23.7199 59.0375 23.7611C56.1237 24.8211 57.5039 28.5062 60.0299 28.1319Z" fill="#B96311"/>
<path d="M39.6375 20.0219C41.2974 21.0202 42.5603 22.3659 43.4264 24.0589L44.121 24.6272C44.3465 24.8136 44.315 24.9324 44.0263 24.9835L43.3587 25.1008C43.2024 25.1279 43.1512 25.2166 43.2054 25.3669C43.6023 26.4525 43.6564 27.5711 43.3677 28.7228C43.3519 28.7854 43.3526 28.8509 43.3696 28.9131C43.3865 28.9753 43.4193 29.0321 43.4647 29.0779C43.5101 29.1238 43.5665 29.1571 43.6285 29.1747C43.6906 29.1923 43.7561 29.1936 43.8188 29.1784C44.6939 28.9619 45.4035 29.1528 45.9478 29.7512C46.0378 29.85 46.0989 29.9717 46.1246 30.1028C46.1502 30.234 46.1394 30.3695 46.0932 30.4945C46.047 30.6195 45.9673 30.7291 45.8629 30.8112C45.7584 30.8934 45.6333 30.9449 45.5013 30.9601C44.9269 31.0263 44.4022 30.9541 43.9271 30.7436C43.5031 30.5571 43.249 30.6925 43.1648 31.1495L42.5333 34.6498C42.2566 34.9896 42.1228 35.4857 42.1318 36.1383C41.2297 36.9712 40.6118 37.8493 40.278 38.7725C39.5412 40.8323 38.3159 42.3764 36.6018 43.4049C36.2259 43.6304 36.2425 43.8198 36.6514 43.9732C38.2542 44.5656 39.8901 44.755 41.559 44.5415C42.2687 44.6167 42.5874 44.4573 42.5152 44.0634C42.5694 44.2138 42.7302 44.2333 42.9979 44.122C43.021 44.1125 43.0462 44.1087 43.0711 44.1111C43.0961 44.1135 43.12 44.1219 43.141 44.1357C43.1619 44.1495 43.1791 44.1682 43.1911 44.1902C43.2031 44.2122 43.2096 44.2368 43.2099 44.2619C43.2099 44.307 43.2099 44.3551 43.2099 44.4062C43.209 44.4255 43.2135 44.4446 43.2229 44.4615C43.2323 44.4783 43.2463 44.4922 43.2631 44.5016C43.28 44.511 43.2991 44.5155 43.3184 44.5145C43.3377 44.5136 43.3563 44.5073 43.3722 44.4964C43.5677 44.3671 43.7587 44.2589 43.9451 44.1717C44.0564 44.1205 44.118 44.2453 44.13 44.546C48.8962 45.1986 53.1949 44.1506 57.0259 41.4021C56.9417 41.1766 56.9597 40.9842 57.08 40.8248C57.1642 40.7105 57.2754 40.6714 57.4138 40.7075C57.9881 40.8549 58.4287 40.6774 58.7354 40.1753C60.3712 38.8852 61.6342 37.1396 62.5243 34.9384C62.6476 34.2979 62.5032 33.7852 62.0913 33.4003C61.983 33.2981 61.9124 33.1748 61.8793 33.0305C61.6898 32.1103 61.8612 31.5856 62.3935 31.4563L63.264 28.7093C67.6934 43.7567 51.1485 49.5438 39.8856 47.6809C38.3369 47.4253 36.5312 46.7111 34.4683 45.5384C34.333 45.4632 34.2022 45.4692 34.0759 45.5564C27.6618 50.0896 18.7669 51.5871 11.6898 47.5681C9.1999 46.1518 7.30093 44.1656 5.99286 41.6096C7.37912 42.9388 8.84206 43.8394 10.3817 44.3115C11.1876 44.4017 11.5905 44.525 11.5905 44.6814C12.1468 45.1204 12.9527 45.4888 14.0082 45.7865C17.7791 46.8555 20.8418 47.0224 24.4773 45.8902C25.4877 45.5745 26.4891 45.2737 27.4814 44.9881L28.6361 44.1852C28.7714 44.092 28.791 43.9807 28.6947 43.8514C28.388 43.4274 28.3384 42.9794 28.5459 42.5072C28.6211 42.3388 28.7323 42.3088 28.8797 42.417L29.6555 42.9809C30.287 43.3267 30.6629 43.3597 30.7832 43.0801C34.3946 40.8278 37.4558 38.0312 39.9667 34.6904C43.1738 30.4188 43.6113 25.9127 39.3668 22.1238L38.4512 20.9736C38.4077 20.9194 38.3837 20.8522 38.3829 20.7827C38.3821 20.7132 38.4045 20.6454 38.4467 20.5902C38.7594 20.1782 39.1563 19.9888 39.6375 20.0219Z" fill="#913E10"/>
<path d="M27.0258 24.7083C26.71 25.0993 26.2951 25.2406 25.7808 25.1323C25.6034 25.0963 25.5117 24.9865 25.5057 24.8031L25.3975 21.2397C25.3914 21.0081 25.5012 20.8698 25.7267 20.8247L27.7565 20.4233C27.8372 20.4073 27.921 20.424 27.9895 20.4696C28.0579 20.5153 28.1055 20.5862 28.1219 20.6668L28.6902 23.3732C28.7173 23.5025 28.6812 23.6078 28.5819 23.6889C28.2151 23.9927 27.8257 24.2347 27.4137 24.4151C27.2603 24.4813 27.131 24.579 27.0258 24.7083Z" fill="#5A1F08"/>
<path d="M46.5747 22.0787C46.8123 21.5855 47.4964 21.1149 48.6271 20.6668C48.7564 20.6157 48.8767 20.6308 48.9879 20.7119C50.1426 21.5419 49.9171 23.08 48.5369 23.3912C47.7385 23.5672 45.9072 23.4724 46.5747 22.0787Z" fill="#6C220A"/>
<path d="M14.8877 24.9699C14.802 23.3055 16.056 21.2622 18.0271 22.453C18.1306 22.5157 18.2201 22.599 18.2901 22.6977C18.3601 22.7964 18.4091 22.9084 18.434 23.0268C18.4589 23.1452 18.4593 23.2674 18.4351 23.386C18.4109 23.5045 18.3626 23.6168 18.2932 23.716C17.6858 24.573 16.9115 25.212 15.9703 25.633C15.8567 25.6844 15.7322 25.7072 15.6077 25.6994C15.4832 25.6915 15.3624 25.6533 15.2558 25.588C15.1492 25.5227 15.0599 25.4322 14.9958 25.3245C14.9316 25.2168 14.8946 25.0951 14.8877 24.9699Z" fill="#5A1F08"/>
<path d="M39.3668 22.1237C43.6113 25.9126 43.1738 30.4187 39.9667 34.6903C37.4558 38.0311 34.3946 40.8277 30.7831 43.08C30.6629 43.3596 30.287 43.3266 29.6555 42.9808C28.5339 40.8397 28.4677 38.5303 29.457 36.0525C29.9833 34.7294 30.284 33.6543 30.3591 32.8274C30.368 32.743 30.3456 32.658 30.296 32.5883L28.9248 30.6443C28.8871 30.5888 28.8658 30.5238 28.8634 30.4568C28.861 30.3897 28.8776 30.3234 28.9112 30.2654C31.2928 26.302 34.778 23.5882 39.3668 22.1237ZM32.1544 30.8608L33.5211 31.5328C33.6682 31.6044 33.8378 31.6147 33.9926 31.5615C34.1473 31.5082 34.2746 31.3957 34.3465 31.2487L35.5869 28.7227C35.7188 28.453 35.733 28.1394 35.6264 27.851C35.5198 27.5625 35.3012 27.3228 35.0186 27.1846L34.6713 27.0132C34.5315 26.9443 34.3801 26.9024 34.2258 26.8898C34.0714 26.8772 33.9172 26.8942 33.7718 26.9399C33.6265 26.9856 33.4929 27.0589 33.3786 27.1559C33.2644 27.2528 33.1718 27.3714 33.1061 27.5049L31.8702 30.0353C31.7986 30.1825 31.7883 30.3521 31.8416 30.5068C31.8949 30.6616 32.0073 30.7888 32.1544 30.8608ZM31.0718 36.8418C31.0578 36.9353 31.066 37.0308 31.0959 37.1204C31.1258 37.2101 31.1764 37.2915 31.2437 37.3579C31.311 37.4243 31.393 37.4738 31.483 37.5025C31.5731 37.5312 31.6687 37.5382 31.7619 37.5229C32.8204 37.3485 33.6564 36.7997 34.2698 35.8766C34.3202 35.8007 34.3518 35.7141 34.3623 35.6237C34.3728 35.5333 34.3617 35.4417 34.3301 35.3564C34.2984 35.2711 34.247 35.1945 34.1801 35.1328C34.1132 35.0711 34.0327 35.0261 33.9451 35.0015C32.3002 34.5294 31.3425 35.1428 31.0718 36.8418Z" fill="#B96311"/>
<path d="M60.0299 28.1319C57.5039 28.5063 56.1237 24.8211 59.0375 23.7611C59.1516 23.7199 59.2734 23.7044 59.3942 23.7156C59.515 23.7268 59.632 23.7645 59.737 23.826C59.8419 23.8875 59.9322 23.9713 60.0015 24.0715C60.0708 24.1718 60.1174 24.286 60.1381 24.4061L60.6253 27.311C60.6413 27.4037 60.6385 27.4988 60.6171 27.5905C60.5957 27.6822 60.5561 27.7689 60.5007 27.8453C60.4452 27.9217 60.375 27.9864 60.2942 28.0357C60.2134 28.0849 60.1235 28.1176 60.0299 28.1319Z" fill="#6C220A"/>
<path d="M11.7754 24.3249C11.8554 24.298 11.9399 24.2872 12.024 24.2931C12.1081 24.299 12.1903 24.3215 12.2657 24.3592C12.3412 24.3969 12.4084 24.4491 12.4636 24.5129C12.5188 24.5767 12.5608 24.6508 12.5873 24.7308L12.7227 25.1368C12.7978 25.3599 12.825 25.5967 12.8029 25.8337C12.7807 26.0706 12.7095 26.3029 12.5935 26.5174C12.4774 26.732 12.3187 26.9244 12.1265 27.0838C11.9343 27.2431 11.7123 27.3663 11.4732 27.4462L10.8237 27.6627C10.5849 27.7426 10.3337 27.7777 10.0845 27.766C9.83526 27.7544 9.59294 27.6962 9.37135 27.5948C9.14976 27.4934 8.95324 27.3509 8.79303 27.1752C8.63281 26.9996 8.51203 26.7943 8.43759 26.5712L8.29776 26.1652C8.27092 26.0852 8.26014 26.0008 8.26603 25.9166C8.27192 25.8325 8.29436 25.7503 8.33208 25.6749C8.3698 25.5995 8.42205 25.5322 8.48583 25.477C8.5496 25.4218 8.62365 25.3798 8.70372 25.3533L11.7754 24.3249Z" fill="#6C220A"/>
<path d="M44.2879 25.7097C44.2428 25.6796 44.1947 25.6375 44.1436 25.5834C44.1192 25.5565 44.1045 25.5222 44.1019 25.486C44.0993 25.4499 44.1089 25.4138 44.1291 25.3837C44.1494 25.3536 44.1791 25.3312 44.2136 25.3199C44.2481 25.3087 44.2854 25.3093 44.3195 25.3218C46.1718 26.0435 48.0813 26.2058 50.0479 25.8089C50.5622 25.7067 50.693 25.8856 50.4404 26.3457C49.5623 27.9424 48.2302 28.9197 46.444 29.2776C46.3651 29.2931 46.2836 29.2906 46.2055 29.2703C46.1275 29.25 46.0548 29.2124 45.9929 29.1603C45.0547 28.3709 44.8653 26.8328 44.324 25.7503C44.318 25.7352 44.3059 25.7217 44.2879 25.7097Z" fill="#B96311"/>
<path d="M32.1544 30.8609C32.0073 30.7889 31.8949 30.6617 31.8416 30.5069C31.7883 30.3522 31.7986 30.1826 31.8702 30.0354L33.1061 27.505C33.1718 27.3715 33.2644 27.2529 33.3786 27.156C33.4928 27.059 33.6265 26.9856 33.7718 26.94C33.9172 26.8943 34.0714 26.8773 34.2258 26.8899C34.3801 26.9025 34.5315 26.9444 34.6713 27.0133L35.0186 27.1847C35.3012 27.3229 35.5198 27.5626 35.6264 27.8511C35.733 28.1395 35.7188 28.4531 35.5869 28.7228L34.3465 31.2488C34.2746 31.3958 34.1473 31.5083 33.9926 31.5615C33.8378 31.6148 33.6682 31.6045 33.5211 31.5329L32.1544 30.8609Z" fill="#5A1F08"/>
<path d="M57.0258 41.4021C53.1948 44.1505 48.8962 45.1985 44.13 44.546C44.8833 41.5735 46.3312 40.4594 48.6496 39.0972C51.8567 37.2207 51.0267 32.6515 49.9893 29.4174C49.9423 29.2738 49.9423 29.1204 49.9893 28.9799C50.4674 27.5139 51.7078 26.9185 53.1061 27.7755C54.0263 28.3439 56.2049 29.6474 56.674 30.7931C56.7341 30.9405 56.7356 31.0863 56.6785 31.2307C55.6772 33.7295 54.8968 35.5969 55.5824 38.3574C55.8305 39.3633 56.5342 40.3782 57.0258 41.4021ZM51.6853 31.3434C51.5133 31.479 51.3981 31.674 51.3622 31.89C51.3264 32.1061 51.3724 32.3278 51.4913 32.5117L52.213 33.6258C52.2878 33.742 52.389 33.8389 52.5082 33.9087C52.6275 33.9786 52.7615 34.0193 52.8995 34.0276C53.0374 34.036 53.1754 34.0117 53.3022 33.9568C53.429 33.9019 53.5411 33.8178 53.6293 33.7115L55.0637 31.993C55.1454 31.8949 55.2049 31.7803 55.2378 31.657C55.2708 31.5336 55.2766 31.4046 55.2547 31.2789C55.2328 31.1531 55.1838 31.0337 55.1111 30.9288C55.0384 30.8238 54.9437 30.736 54.8337 30.6713L54.0443 30.2022C53.8914 30.1121 53.7148 30.0703 53.5377 30.0823C53.3605 30.0944 53.1912 30.1598 53.052 30.2699L51.6853 31.3434ZM51.0267 40.1166C53.2234 41.0908 54.536 37.8613 53.2189 37.4418C52.3619 37.1711 51.2522 38.3439 50.7471 38.9709C50.6758 39.0598 50.626 39.1639 50.6014 39.2752C50.5768 39.3864 50.578 39.5018 50.605 39.6125C50.632 39.7232 50.6841 39.8262 50.7572 39.9136C50.8303 40.001 50.9225 40.0704 51.0267 40.1166Z" fill="#B96311"/>
<path d="M19.3758 27.7349L20.1562 28.7904C20.2383 28.9011 20.2951 29.0286 20.3224 29.1637C20.3497 29.2989 20.3469 29.4384 20.3142 29.5723C20.2815 29.7063 20.2196 29.8313 20.1331 29.9387C20.0465 30.046 19.9373 30.1329 19.8134 30.1932L18.7489 30.7074C18.6203 30.7702 18.479 30.8028 18.336 30.8026C18.1929 30.8024 18.0517 30.7695 17.9233 30.7064C17.7949 30.6432 17.6827 30.5516 17.5951 30.4384C17.5076 30.3252 17.4471 30.1935 17.4182 30.0534L17.125 28.619C17.0762 28.3807 17.1217 28.1328 17.2522 27.9274C17.3826 27.7221 17.5877 27.5755 17.8242 27.5184L18.4015 27.3786C18.581 27.3356 18.7691 27.3465 18.9424 27.4099C19.1157 27.4732 19.2665 27.5863 19.3758 27.7349Z" fill="#5A1F08"/>
<path d="M42.5152 44.0633C42.5874 44.4572 42.2687 44.6166 41.559 44.5414L38.9473 44.5459C38.8977 44.5462 38.8493 44.5308 38.809 44.5019C38.7687 44.4729 38.7386 44.4319 38.723 44.3848C38.7075 44.3377 38.7073 44.2869 38.7225 44.2396C38.7377 44.1924 38.7674 44.1512 38.8075 44.1219C42.1123 41.7313 44.5585 38.6505 46.1463 34.8797C46.2094 34.7293 46.2214 34.576 46.1823 34.4196C45.9147 33.3581 45.8711 32.2846 46.0515 31.199C46.0572 31.159 46.0735 31.121 46.0988 31.0886C46.1241 31.0562 46.1575 31.0305 46.1959 31.0141L48.6 29.9812C48.7053 29.933 48.7714 29.9661 48.7985 30.0804C49.5864 33.3461 48.9233 36.0645 46.8093 38.2356C44.7585 40.3435 43.3256 41.8937 42.5107 42.886C42.1995 43.2694 42.1454 43.7205 42.5152 44.0633Z" fill="#B96311"/>
<path d="M51.6853 31.3434L53.052 30.2699C53.1912 30.1598 53.3605 30.0944 53.5377 30.0823C53.7148 30.0702 53.8914 30.112 54.0443 30.2022L54.8337 30.6713C54.9437 30.736 55.0384 30.8238 55.1111 30.9287C55.1838 31.0336 55.2328 31.1531 55.2547 31.2789C55.2766 31.4046 55.2708 31.5336 55.2378 31.6569C55.2049 31.7802 55.1454 31.8949 55.0637 31.9929L53.6293 33.7115C53.5411 33.8178 53.429 33.9018 53.3022 33.9567C53.1754 34.0117 53.0374 34.036 52.8994 34.0276C52.7615 34.0193 52.6275 33.9785 52.5082 33.9087C52.3889 33.8389 52.2878 33.742 52.213 33.6258L51.4913 32.5116C51.3724 32.3277 51.3263 32.106 51.3622 31.89C51.3981 31.6739 51.5133 31.479 51.6853 31.3434Z" fill="#5A1F08"/>
<path d="M7.35502 31.2171L7.96847 32.1644C8.03098 32.2607 8.0735 32.3686 8.09351 32.4816C8.11352 32.5947 8.11061 32.7106 8.08494 32.8225C8.05928 32.9345 8.01138 33.0401 7.94411 33.1331C7.87683 33.2262 7.79155 33.3047 7.69332 33.3642L6.8363 33.8784C6.72101 33.9481 6.59092 33.9896 6.45657 33.9997C6.32222 34.0097 6.18741 33.9879 6.06306 33.936C5.93872 33.8842 5.82835 33.8037 5.74091 33.7013C5.65347 33.5988 5.59142 33.4771 5.5598 33.3461L5.21249 31.8937C5.18282 31.7692 5.18142 31.6397 5.20838 31.5146C5.23534 31.3895 5.28997 31.272 5.36827 31.1707C5.44658 31.0695 5.54656 30.9871 5.66088 30.9296C5.7752 30.872 5.90095 30.8408 6.0289 30.8382L6.61979 30.8247C6.76561 30.8222 6.90966 30.8569 7.03832 30.9255C7.16698 30.9942 7.27599 31.0946 7.35502 31.2171Z" fill="#5A1F08"/>
<path d="M27.4814 44.988C26.489 45.2737 25.4877 45.5744 24.4773 45.8901C20.8418 47.0223 17.7791 46.8554 14.0082 45.7864C12.9527 45.4887 12.1468 45.1203 11.5905 44.6813C11.8115 41.1089 13.3767 38.4657 16.3898 36.472C16.4605 36.4249 16.5154 36.359 16.5477 36.2825L17.3821 34.361C17.4057 34.3052 17.4483 34.2595 17.5026 34.2315C17.5569 34.2035 17.6195 34.1951 17.6798 34.2077C20.8102 34.8722 23.1196 33.8528 24.6081 31.1495C24.6312 31.1066 24.6654 31.0707 24.7072 31.0456C24.7489 31.0205 24.7968 31.0071 24.8458 31.0066C24.8949 31.0061 24.9434 31.0187 24.9865 31.043C25.0295 31.0673 25.0655 31.1025 25.0908 31.145C25.7283 32.2335 26.7086 32.7643 28.0317 32.7372C28.1533 32.7346 28.2737 32.7618 28.3824 32.8165C28.491 32.8712 28.5846 32.9517 28.6549 33.051C28.7253 33.1503 28.7702 33.2653 28.7858 33.3859C28.8014 33.5066 28.7871 33.6292 28.7443 33.7431C27.4814 37.0929 27.3912 40.4714 28.4737 43.8784C28.5128 44.0107 28.4812 44.122 28.379 44.2122L27.4814 44.988ZM24.4863 35.1819L23.4263 38.2582C23.4014 38.3304 23.391 38.4069 23.3957 38.4832C23.4004 38.5595 23.42 38.6341 23.4535 38.7028C23.487 38.7715 23.5337 38.8329 23.591 38.8835C23.6482 38.9342 23.7149 38.973 23.7872 38.9979L24.0308 39.0836C24.474 39.2358 24.9653 39.1893 25.3966 38.9541C25.8279 38.719 26.1641 38.3146 26.3312 37.8297L26.5116 37.3064C26.6784 36.8213 26.6623 36.2956 26.4669 35.8448C26.2715 35.394 25.9128 35.055 25.4696 34.9023L25.2261 34.8211C25.1538 34.7962 25.0774 34.7858 25.0011 34.7904C24.9248 34.7951 24.8501 34.8148 24.7814 34.8483C24.7128 34.8818 24.6513 34.9285 24.6007 34.9857C24.5501 35.043 24.5112 35.1097 24.4863 35.1819ZM16.7236 38.6777C16.5724 38.7569 16.4476 38.8784 16.3643 39.0274C16.281 39.1764 16.2428 39.3464 16.2545 39.5166L16.3131 40.4594C16.3226 40.6007 16.3661 40.7376 16.4399 40.8585C16.5137 40.9794 16.6156 41.0807 16.737 41.1538C16.8583 41.2269 16.9955 41.2696 17.1369 41.2782C17.2783 41.2869 17.4197 41.2613 17.549 41.2036L18.5774 40.748C18.6919 40.6979 18.7944 40.624 18.8781 40.5311C18.9618 40.4383 19.0247 40.3287 19.0627 40.2096C19.1007 40.0905 19.1129 39.9647 19.0984 39.8405C19.084 39.7164 19.0432 39.5967 18.9789 39.4896L18.4917 38.6912C18.3768 38.5002 18.1937 38.36 17.9793 38.2989C17.765 38.2377 17.5354 38.2603 17.337 38.3619L16.7236 38.6777ZM24.8201 42.205C24.9226 42.104 24.9927 41.9747 25.0212 41.8337C25.0497 41.6927 25.0354 41.5463 24.9801 41.4135C24.9248 41.2806 24.8311 41.1673 24.711 41.0881C24.5908 41.009 24.4498 40.9675 24.3059 40.9691L23.088 40.9781C22.9563 40.9792 22.8274 41.0164 22.7153 41.0856C22.6032 41.1547 22.5122 41.2533 22.4521 41.3705L21.7845 42.6605C21.7271 42.7706 21.699 42.8936 21.703 43.0176C21.707 43.1417 21.743 43.2626 21.8074 43.3687C21.8718 43.4748 21.9624 43.5625 22.0706 43.6234C22.1788 43.6842 22.3009 43.7161 22.425 43.716H22.9843C23.1749 43.7169 23.3582 43.6423 23.494 43.5085L24.8201 42.205Z" fill="#B96311"/>
<path d="M62.5243 34.9384C61.6342 37.1395 60.3712 38.8851 58.7354 40.1752C58.0648 40.4669 57.5656 40.3 57.2378 39.6745C56.0696 37.4417 55.1494 32.6515 59.0376 32.5793C60.9741 32.5462 62.1364 33.3326 62.5243 34.9384Z" fill="#B96311"/>
<path d="M10.3816 44.3114C8.84202 43.8393 7.37908 42.9387 5.99282 41.6096L4.90576 39.0024L5.20797 39.1107C5.37035 39.1678 5.46658 39.1122 5.49665 38.9438C5.62295 38.2311 5.80789 37.6718 6.42584 37.2252C8.32631 35.86 9.66746 35.0827 10.4493 34.8933C12.0551 34.5023 13.5315 33.8754 14.8787 33.0123C14.9722 32.953 15.0804 32.9206 15.1912 32.919C15.3019 32.9173 15.411 32.9463 15.5063 33.0028C15.6016 33.0593 15.6794 33.1411 15.731 33.2392C15.7826 33.3372 15.8061 33.4476 15.7989 33.5581C15.7417 34.4151 15.429 35.2902 14.8607 36.1833C14.139 37.3245 11.807 38.6957 10.9049 40.6037C10.3771 41.7178 10.5801 43.0259 10.3816 44.3114ZM8.79842 39.6835C9.83586 39.4805 11.0853 38.3845 11.162 37.2703C11.1672 37.1722 11.1429 37.0748 11.0922 36.9911C11.0415 36.9074 10.9667 36.8412 10.8778 36.8012C9.09161 35.9938 7.60762 37.9199 8.31127 39.4399C8.35362 39.5291 8.42459 39.6015 8.51288 39.6457C8.60116 39.6898 8.70168 39.7031 8.79842 39.6835Z" fill="#B96311"/>
<path d="M42.1318 36.1382C42.1228 35.4857 42.2566 34.9895 42.5332 34.6497C43.5406 33.2604 44.4788 32.7342 45.3478 33.071C45.4922 33.1272 45.6216 33.2159 45.726 33.3303C45.8305 33.4447 45.907 33.5817 45.9498 33.7306C45.9926 33.8794 46.0004 34.0362 45.9727 34.1886C45.9449 34.3409 45.8824 34.4849 45.7899 34.6091C44.793 35.9533 44.2833 37.8207 42.1318 36.1382Z" fill="#461606"/>
<path d="M24.4863 35.182C24.5112 35.1097 24.55 35.0431 24.6007 34.9858C24.6513 34.9286 24.7127 34.8818 24.7814 34.8483C24.8501 34.8148 24.9247 34.7952 25.001 34.7905C25.0773 34.7858 25.1538 34.7963 25.2261 34.8212L25.4696 34.9023C25.9128 35.055 26.2715 35.394 26.4669 35.8448C26.6622 36.2957 26.6783 36.8214 26.5116 37.3065L26.3311 37.8297C26.1641 38.3146 25.8279 38.7191 25.3966 38.9542C24.9652 39.1893 24.474 39.2359 24.0307 39.0837L23.7872 38.998C23.7149 38.9731 23.6482 38.9343 23.591 38.8836C23.5337 38.833 23.487 38.7716 23.4535 38.7029C23.42 38.6342 23.4003 38.5596 23.3957 38.4833C23.391 38.407 23.4014 38.3305 23.4263 38.2582L24.4863 35.182Z" fill="#5A1F08"/>
<path d="M31.0718 36.8419C31.3425 35.1429 32.3002 34.5295 33.9451 35.0016C34.0327 35.0262 34.1132 35.0712 34.1801 35.1329C34.247 35.1946 34.2984 35.2712 34.3301 35.3565C34.3617 35.4418 34.3728 35.5334 34.3623 35.6238C34.3519 35.7142 34.3202 35.8008 34.2699 35.8766C33.6564 36.7998 32.8204 37.3486 31.762 37.523C31.6687 37.5383 31.5731 37.5313 31.483 37.5026C31.393 37.4739 31.311 37.4244 31.2437 37.358C31.1764 37.2916 31.1258 37.2102 31.0959 37.1205C31.0661 37.0309 31.0578 36.9354 31.0718 36.8419Z" fill="#5A1F08"/>
<path d="M11.162 37.2704C11.0853 38.3845 9.83588 39.4806 8.79844 39.6835C8.7017 39.7032 8.60118 39.6898 8.5129 39.6457C8.42461 39.6015 8.35364 39.5291 8.31129 39.44C7.60764 37.9199 9.09163 35.9939 10.8778 36.8013C10.9667 36.8412 11.0415 36.9074 11.0922 36.9911C11.1429 37.0748 11.1673 37.1722 11.162 37.2704Z" fill="#5A1F08"/>
<path d="M53.2189 37.4417C54.536 37.8612 53.2234 41.0908 51.0267 40.1165C50.9226 40.0704 50.8303 40.001 50.7572 39.9136C50.6841 39.8262 50.632 39.7232 50.605 39.6125C50.578 39.5018 50.5768 39.3864 50.6014 39.2751C50.626 39.1639 50.6759 39.0598 50.7471 38.9708C51.2523 38.3439 52.3619 37.1711 53.2189 37.4417Z" fill="#5A1F08"/>
<path d="M16.7236 38.6777L17.337 38.362C17.5354 38.2603 17.765 38.2378 17.9793 38.2989C18.1937 38.36 18.3768 38.5003 18.4918 38.6912L18.9789 39.4896C19.0432 39.5968 19.084 39.7164 19.0984 39.8406C19.1129 39.9647 19.1007 40.0905 19.0627 40.2096C19.0248 40.3287 18.9618 40.4383 18.8781 40.5312C18.7945 40.624 18.692 40.698 18.5774 40.7481L17.549 41.2036C17.4197 41.2614 17.2783 41.287 17.1369 41.2783C16.9955 41.2696 16.8583 41.2269 16.737 41.1539C16.6156 41.0808 16.5137 40.9795 16.4399 40.8586C16.3661 40.7377 16.3226 40.6007 16.3131 40.4594L16.2545 39.5167C16.2429 39.3464 16.281 39.1764 16.3643 39.0274C16.4476 38.8785 16.5724 38.757 16.7236 38.6777Z" fill="#5A1F08"/>
<path d="M24.8201 42.205L23.494 43.5086C23.3582 43.6423 23.1749 43.7169 22.9843 43.7161H22.425C22.3008 43.7162 22.1788 43.6843 22.0706 43.6234C21.9624 43.5626 21.8717 43.4749 21.8074 43.3688C21.743 43.2627 21.707 43.1417 21.703 43.0177C21.699 42.8936 21.7271 42.7706 21.7845 42.6606L22.452 41.3705C22.5121 41.2533 22.6032 41.1548 22.7153 41.0856C22.8274 41.0164 22.9563 40.9792 23.088 40.9781L24.3059 40.9691C24.4498 40.9675 24.5908 41.009 24.711 41.0882C24.8311 41.1674 24.9248 41.2807 24.9801 41.4135C25.0353 41.5464 25.0496 41.6927 25.0211 41.8337C24.9926 41.9748 24.9226 42.104 24.8201 42.205Z" fill="#5A1F08"/>
</svg>
